# xmcd
#
# Track frame offsets:
#	150
#	15052
#	28102
#	42952
#	54050
#	67657
#	81877
#	98460
#	113115
#	126735
#	141135
#	155612
#	173192
#
# Disc length: 2556 seconds
#
# Revision: 0
# Processed by: cddbd v1.5.1PL2 Copyright (c) Steve Scherf et al.
# Submitted via: audiograbber 1.83.01
#
DISCID=9909fa0d
DTITLE=Highway - Highway
DYEAR=1992
DGENRE=Country
TTITLE0=Western Weekend
TTITLE1=Western Lady Mountain Man
TTITLE2=Ich bin ein Cowboy und Du ´ne Squaäh
TTITLE3=Hillybilly Tag und Nacht
TTITLE4=Wochenende
TTITLE5=Männer wie wir
TTITLE6=Alter Diesel
TTITLE7=Ein Trucker liebt den Motorsound
TTITLE8=Mein Truck fährt nur mit Country Music
TTITLE9=Johnny lauf
TTITLE10=Back on the Roads
TTITLE11=HIGHWAY Trucker Medley
TTITLE12=HIGHWAY Country Medley
EXTD=
EXTT0=
EXTT1=
EXTT2=
EXTT3=
EXTT4=
EXTT5=
EXTT6=
EXTT7=
EXTT8=
EXTT9=
EXTT10=
EXTT11=
EXTT12=
PLAYORDER=
